<svg width="60" height="60" viewBox="0 0 60 60" fill="none" xmlns="http://www.w3.org/2000/svg">
<g clip-path="url(#clip0_4259_15335)">
<path d="M30 0C13.433 0 0 13.433 0 30C0 46.567 13.433 60 30 60C46.567 60 60 46.567 60 30C60 13.433 46.567 0 30 0ZM30 54.9107C16.2455 54.9107 5.08929 43.7545 5.08929 30C5.08929 16.2455 16.2455 5.08929 30 5.08929C43.7545 5.08929 54.9107 16.2455 54.9107 30C54.9107 43.7545 43.7545 54.9107 30 54.9107Z" fill="#FCA948"/>
<path d="M41.6992 38.4714L32.1501 31.5674V14.9937C32.1501 14.6991 31.909 14.458 31.6144 14.458H28.3934C28.0987 14.458 27.8577 14.6991 27.8577 14.9937V33.4357C27.8577 33.6098 27.938 33.7705 28.0786 33.871L39.1545 41.9468C39.3956 42.121 39.7304 42.0674 39.9045 41.833L41.8197 39.2214C41.9938 38.9736 41.9403 38.6388 41.6992 38.4714Z" fill="#FCA948"/>
</g>
<defs>
<clipPath id="clip0_4259_15335">
<rect width="60" height="60" fill="white"/>
</clipPath>
</defs>
</svg>
