<svg width="48" height="48" viewBox="0 0 48 48" fill="none" xmlns="http://www.w3.org/2000/svg">
<g clip-path="url(#clip0_4370_15237)">
<path d="M21.8705 14.3989C21.4476 14.3989 21.1048 14.7418 21.1048 15.1646V15.9304H16.7657C16.3428 15.9304 16 16.2732 16 16.6961C16 17.119 16.3428 17.4618 16.7657 17.4618H31.059C31.4819 17.4618 31.8248 17.119 31.8248 16.6961C31.8248 16.2732 31.4819 15.9304 31.059 15.9304H26.72V15.1646C26.72 14.7418 26.3772 14.3989 25.9543 14.3989H21.8705Z" fill="white"/>
<path d="M24.9953 27.416L26.4957 28.9165C26.7947 29.2155 26.7947 29.7003 26.4957 29.9993C26.1966 30.2983 25.7119 30.2983 25.4128 29.9993L23.9124 28.4989L22.4119 29.9993C22.1128 30.2983 21.628 30.2983 21.329 29.9993C21.03 29.7003 21.03 29.2155 21.329 28.9165L22.8294 27.416L21.329 25.9155C21.03 25.6165 21.03 25.1317 21.329 24.8327C21.628 24.5336 22.1128 24.5336 22.4119 24.8327L23.9124 26.3331L25.4128 24.8327C25.7119 24.5336 26.1966 24.5336 26.4957 24.8327C26.7947 25.1317 26.7947 25.6165 26.4957 25.9155L24.9953 27.416Z" fill="white"/>
<path fill-rule="evenodd" clip-rule="evenodd" d="M17.778 20.1846C17.8211 19.7968 18.1489 19.5034 18.5391 19.5034H29.286C29.6761 19.5034 30.0039 19.7968 30.047 20.1846L30.2513 22.0237C30.6217 25.3574 30.6217 28.7219 30.2513 32.0556L30.2312 32.2367C30.0842 33.56 29.0585 34.6153 27.74 34.7998C25.2008 35.1553 22.6243 35.1553 20.0851 34.7998C18.7665 34.6153 17.7409 33.56 17.5938 32.2367L17.5737 32.0556C17.2033 28.7219 17.2033 25.3574 17.5737 22.0237L17.778 20.1846ZM19.2244 21.0348L19.0958 22.1928C18.7378 25.4141 18.7378 28.6652 19.0958 31.8865L19.1159 32.0676C19.1856 32.6951 19.672 33.1956 20.2974 33.2832C22.6958 33.6189 25.1293 33.6189 27.5276 33.2832C28.153 33.1956 28.6394 32.6951 28.7092 32.0676L28.7293 31.8865C29.0872 28.6652 29.0872 25.4141 28.7293 22.1928L28.6006 21.0348H19.2244Z" fill="white"/>
</g>
<defs>
<clipPath id="clip0_4370_15237">
<rect width="48" height="48" fill="white"/>
</clipPath>
</defs>
</svg>
