<svg width="60" height="60" viewBox="0 0 60 60" fill="none" xmlns="http://www.w3.org/2000/svg">
<path d="M30 3.75C15.5039 3.75 3.75 15.5039 3.75 30C3.75 44.4961 15.5039 56.25 30 56.25C44.4961 56.25 56.25 44.4961 56.25 30C56.25 15.5039 44.4961 3.75 30 3.75ZM41.3379 21.4277L28.998 38.5371C28.8256 38.7778 28.5982 38.974 28.3348 39.1093C28.0714 39.2446 27.7795 39.3152 27.4834 39.3152C27.1873 39.3152 26.8954 39.2446 26.632 39.1093C26.3686 38.974 26.1412 38.7778 25.9688 38.5371L18.6621 28.4121C18.4395 28.1016 18.6621 27.668 19.043 27.668H21.791C22.3887 27.668 22.957 27.9551 23.3086 28.4473L27.4805 34.2363L36.6914 21.4629C37.043 20.9766 37.6055 20.6836 38.209 20.6836H40.957C41.3379 20.6836 41.5605 21.1172 41.3379 21.4277Z" fill="#52C41A"/>
</svg>
