<svg width="60" height="60" viewBox="0 0 60 60" fill="none" xmlns="http://www.w3.org/2000/svg">
<path d="M27.5025 25H32.5025V37.5H27.5025V25ZM27.5 40H32.5V45H27.5V40Z" fill="#FCA948"/>
<path d="M34.4198 10.5C33.5498 8.86247 31.8548 7.84497 29.9998 7.84497C28.1448 7.84497 26.4498 8.86247 25.5798 10.5025L7.23479 45.16C6.40729 46.725 6.45729 48.5625 7.36979 50.08C8.28229 51.595 9.88229 52.5 11.6523 52.5H48.3473C50.1173 52.5 51.7198 51.595 52.6323 50.08C53.5423 48.565 53.5948 46.725 52.7673 45.16L34.4198 10.5ZM11.6523 47.5L29.9998 12.8425L48.3598 47.5H11.6523Z" fill="#FCA948"/>
</svg>
