<svg xmlns="http://www.w3.org/2000/svg" width="43" height="15" viewBox="0 0 43 15" fill="none">
<path fill-rule="evenodd" clip-rule="evenodd" d="M40.3657 5.87349C40.3657 5.42168 40.7271 5.04217 41.1609 5.04217C41.6127 5.04217 41.9561 5.42168 41.9561 5.87349C41.9561 6.3253 41.6127 6.70482 41.1609 6.70482C40.7271 6.72289 40.3657 6.34337 40.3657 5.87349ZM41.1609 6.52409C41.5042 6.52409 41.7573 6.23494 41.7573 5.89156C41.7573 5.54819 41.4862 5.25903 41.1609 5.25903C40.8175 5.25903 40.5645 5.54819 40.5645 5.89156C40.5645 6.23494 40.8356 6.52409 41.1609 6.52409ZM41.0524 6.25301H40.8898V5.51205H41.197C41.2512 5.51205 41.3235 5.51205 41.3777 5.54819C41.432 5.58433 41.4681 5.65662 41.4681 5.72891C41.4681 5.81927 41.4139 5.89156 41.3416 5.90964L41.4681 6.23494H41.2874L41.1789 5.94578H41.0524V6.25301ZM41.0524 5.83735H41.1428C41.1789 5.83735 41.2151 5.83735 41.2332 5.81927C41.2512 5.8012 41.2693 5.76506 41.2693 5.72891C41.2693 5.71084 41.2512 5.6747 41.2332 5.65662C41.2151 5.63855 41.1609 5.63855 41.1428 5.63855H41.0524C41.0705 5.65662 41.0524 5.83735 41.0524 5.83735ZM28.9982 0.3253L28.7814 1.75301C28.3115 1.5 27.9681 1.40964 27.5886 1.40964C26.5946 1.40964 25.9079 2.42168 25.9079 3.8494C25.9079 4.84337 26.3777 5.43976 27.1549 5.43976C27.4802 5.43976 27.8416 5.33132 28.2934 5.09638L28.0585 6.59638C27.5705 6.74096 27.2452 6.79518 26.8838 6.79518C25.4561 6.79518 24.5525 5.71084 24.5525 3.9759C24.5525 1.64458 25.7814 0 27.5524 0C27.7874 0 27.9862 0.0180712 28.1488 0.072288L28.7091 0.216867C28.8356 0.271084 28.8717 0.271083 28.9982 0.3253ZM24.5705 1.3012C24.5344 1.28313 24.4802 1.28313 24.444 1.28313C24.0103 1.28313 23.7573 1.51807 23.3416 2.1506L23.4681 1.33735H22.2573L21.444 6.6506H22.7814C23.2693 3.39759 23.3777 2.83735 24.0283 2.83735H24.1187C24.2452 2.20482 24.3898 1.73494 24.6247 1.3012H24.5705ZM16.6187 6.57831C16.2573 6.70482 15.9681 6.75903 15.6609 6.75903C14.9922 6.75903 14.6127 6.34337 14.6127 5.58433C14.6127 5.43976 14.6308 5.27711 14.6488 5.09638L14.7392 4.57229L14.7934 4.15662L15.3717 0.524095H16.691L16.5284 1.3012H17.2151L17.0163 2.58434H16.3657L16.0043 4.84337C15.9862 4.93373 15.9862 5.00602 15.9862 5.06024C15.9862 5.33132 16.1308 5.45783 16.438 5.45783C16.6006 5.45783 16.7091 5.43976 16.7994 5.40361L16.6187 6.57831ZM11.3597 3.01807C11.3597 3.68674 11.6669 4.15662 12.3717 4.5C12.8958 4.77108 13.0043 4.84337 13.0043 5.09638C13.0043 5.42168 12.7693 5.58433 12.2452 5.58433C11.8476 5.58433 11.4862 5.53012 11.0525 5.36747L10.8717 6.59638L10.9259 6.61445L11.1609 6.66867C11.2512 6.68674 11.3597 6.70482 11.5043 6.72289C11.8115 6.74096 12.0645 6.77711 12.2452 6.77711C13.6368 6.77711 14.2874 6.21686 14.2874 5.00602C14.2874 4.28313 14.0163 3.8494 13.3476 3.5241C12.7874 3.25301 12.7332 3.19879 12.7332 2.94578C12.7332 2.65662 12.95 2.51205 13.3838 2.51205C13.6549 2.51205 13.9982 2.54819 14.3416 2.60241L14.5404 1.37349C14.1609 1.3012 13.7633 1.26506 13.3657 1.26506C11.8657 1.22892 11.3597 2.0241 11.3597 3.01807ZM39.6067 6.6506H38.3416L38.3958 6.1265C38.0344 6.54216 37.6549 6.72289 37.1669 6.72289C36.191 6.72289 35.5585 5.83735 35.5585 4.51807C35.5585 2.74699 36.5524 1.24699 37.7271 1.24699C38.2512 1.24699 38.6308 1.48193 39.0103 1.96988L39.2994 0.108433H40.6187L39.6067 6.6506ZM37.6368 5.40361C38.2693 5.40361 38.703 4.66265 38.703 3.61446C38.703 2.94578 38.45 2.56626 37.9982 2.56626C37.4018 2.56626 36.9681 3.30723 36.9681 4.35542C36.95 5.04217 37.185 5.40361 37.6368 5.40361ZM20.8296 6.54217C20.3777 6.68674 19.9259 6.75903 19.4561 6.75903C17.9741 6.75903 17.197 5.94578 17.197 4.37349C17.197 2.54819 18.191 1.21084 19.5284 1.21084C20.6308 1.21084 21.3175 1.96988 21.3175 3.14458C21.3175 3.52409 21.2633 3.92168 21.1549 4.46385H18.4982C18.4802 4.55421 18.4802 4.59036 18.4802 4.6265C18.4802 5.25903 18.8778 5.56626 19.6549 5.56626C20.1247 5.56626 20.5585 5.45783 21.0464 5.22289C21.0284 5.22289 20.8296 6.54217 20.8296 6.54217ZM20.0886 3.36144C20.1067 3.25301 20.1067 3.16265 20.1067 3.09036C20.1067 2.65663 19.8717 2.40361 19.4741 2.40361C19.0585 2.40361 18.7512 2.74699 18.6247 3.36144H20.0886ZM6.01028 6.6506H4.69101L5.45004 1.62651L3.73318 6.6506H2.82956L2.72113 1.66265L1.90788 6.6506H0.660889L1.72715 0.108433H3.64282L3.69703 4.15662L4.98016 0.108433H7.05848L6.01028 6.6506ZM9.44402 4.28313C9.29944 4.26506 9.24522 4.26506 9.13679 4.26506C8.37775 4.26506 7.99824 4.53614 7.99824 5.07831C7.99824 5.40361 8.19703 5.62048 8.48619 5.62048C9.02836 5.60241 9.42595 5.06024 9.44402 4.28313ZM10.4199 6.6506H9.31751L9.33558 6.09036C8.99221 6.54217 8.55848 6.72289 7.94402 6.72289C7.22113 6.72289 6.73318 6.1265 6.73318 5.27711C6.73318 3.9759 7.60065 3.23494 9.0645 3.23494C9.22715 3.23494 9.40787 3.25301 9.60667 3.27108C9.64281 3.09036 9.66089 3.01807 9.66089 2.92771C9.66089 2.58434 9.42595 2.43976 8.81149 2.43976C8.43197 2.43976 7.99824 2.49397 7.70908 2.60241L7.51028 2.65662L7.38378 2.69277L7.5645 1.5C8.23318 1.3012 8.66691 1.21084 9.15486 1.21084C10.2934 1.21084 10.9079 1.75301 10.9079 2.76506C10.9079 3.03614 10.8898 3.21687 10.7994 3.83132L10.5284 5.72891L10.4741 6.07229L10.438 6.34337L10.4199 6.54217C10.438 6.50602 10.4199 6.6506 10.4199 6.6506ZM31.2934 4.28313C31.1669 4.26506 31.0946 4.26506 30.9862 4.26506C30.2271 4.26506 29.8476 4.53614 29.8476 5.07831C29.8476 5.40361 30.0464 5.62048 30.3356 5.62048C30.8777 5.60241 31.2753 5.06024 31.2934 4.28313ZM32.2512 6.6506H31.1488L31.1669 6.09036C30.8235 6.54217 30.3898 6.72289 29.7753 6.72289C29.0524 6.72289 28.5645 6.1265 28.5645 5.27711C28.5645 3.9759 29.432 3.23494 30.8958 3.23494C31.0404 3.23494 31.2392 3.25301 31.438 3.27108C31.4741 3.09036 31.4922 3.01807 31.4922 2.92771C31.4922 2.58434 31.2573 2.43976 30.6428 2.43976C30.2633 2.43976 29.8296 2.49397 29.5404 2.60241L29.3416 2.65662L29.2151 2.69277L29.3958 1.5C30.0645 1.3012 30.4982 1.21084 30.9862 1.21084C32.1247 1.21084 32.7392 1.75301 32.7392 2.76506C32.7392 3.03614 32.7211 3.21687 32.6308 3.83132L32.3597 5.71084L32.3235 6.05421L32.2874 6.3253L32.2693 6.50602L32.2512 6.6506ZM35.9741 1.3012C35.938 1.28313 35.8838 1.28313 35.8476 1.28313C35.4139 1.28313 35.1609 1.51807 34.7452 2.1506L34.8717 1.33735H33.6609L32.8476 6.6506H34.185C34.6729 3.39759 34.7814 2.83735 35.432 2.83735H35.5223C35.6127 2.29518 35.7934 1.78916 36.0284 1.3012H35.9741Z" fill="#5e5e5e"/>
<path fill-rule="evenodd" clip-rule="evenodd" d="M30.3899 11.801C30.3899 13.0118 30.0104 13.7167 29.432 13.7167C28.9983 13.7347 28.7453 13.2468 28.7453 12.542C28.7453 11.6926 29.1248 10.7347 29.7393 10.7347C30.2272 10.7347 30.3899 11.2588 30.3899 11.801ZM31.7091 11.8191C31.7091 10.4817 31.0405 9.43354 29.8116 9.43354C28.3838 9.43354 27.4441 10.6986 27.4441 12.56C27.4441 13.8974 28.0043 14.9998 29.3417 14.9998C30.6971 14.9998 31.7091 14.042 31.7091 11.8191ZM27.8598 8.51185L27.661 9.93956C27.2091 9.68655 26.9019 9.59619 26.5585 9.59619C25.6369 9.59619 24.9863 10.6082 24.9863 12.0359C24.9863 13.0299 25.42 13.6263 26.1429 13.6263C26.4501 13.6263 26.7935 13.5179 27.2091 13.2829L26.9923 14.7829C26.5405 14.9275 26.2332 14.9817 25.8899 14.9817C24.5525 14.9817 23.7031 13.8974 23.7031 12.1625C23.7031 9.83113 24.8598 8.18655 26.5043 8.18655C26.7212 8.18655 26.9019 8.20462 27.0646 8.25884L27.5706 8.40342C27.7152 8.43956 27.7513 8.45763 27.8598 8.51185ZM19.6369 9.46968C19.6007 9.45161 19.5465 9.45161 19.5104 9.45161C19.0947 9.45161 18.8778 9.68655 18.4802 10.3191L18.6067 9.50582H17.4863L16.7272 14.8191H17.9742C18.426 11.5661 18.5345 11.0058 19.1308 11.0058C19.167 11.0058 19.167 11.0058 19.2212 11.0239C19.3296 10.3914 19.4923 9.92149 19.6911 9.48775L19.6369 9.46968ZM35.8658 14.7829H34.6911L34.7453 14.2588C34.4019 14.6745 34.0405 14.8552 33.5887 14.8552C32.6851 14.8552 32.0887 13.9697 32.0887 12.6504C32.0887 10.8793 33.0103 9.37932 34.1128 9.37932C34.6007 9.37932 34.9622 9.61426 35.3055 10.1203L35.5766 8.25884H36.8055L35.8658 14.7829ZM34.0224 13.5359C34.6188 13.5359 35.0164 12.795 35.0164 11.7468C35.0164 11.0781 34.7814 10.7167 34.3477 10.7167C33.7875 10.7167 33.3899 11.4576 33.3899 12.5058C33.3899 13.1745 33.6067 13.5359 34.0224 13.5359ZM7.98024 14.7649C7.56458 14.9094 7.13084 14.9817 6.69711 14.9817C5.30554 14.9817 4.58265 14.1685 4.58265 12.5962C4.58265 10.7709 5.50434 9.43354 6.75133 9.43354C7.78145 9.43354 8.43205 10.1745 8.43205 11.3673C8.43205 11.7468 8.37783 12.1444 8.2694 12.6865H5.81157C5.79349 12.7769 5.79349 12.8131 5.79349 12.8492C5.79349 13.4637 6.17301 13.7709 6.8959 13.7709C7.34771 13.7709 7.7453 13.6625 8.17903 13.4275L7.98024 14.7649ZM7.27542 11.6022C7.27542 11.4938 7.29349 11.4034 7.29349 11.3311C7.29349 10.8974 7.07663 10.6444 6.69711 10.6444C6.29952 10.6444 6.02843 10.9878 5.90193 11.6022H7.27542ZM22.7634 14.7649C22.3477 14.9094 21.914 14.9817 21.4802 14.9817C20.0887 14.9817 19.3658 14.1685 19.3658 12.5962C19.3658 10.7709 20.2875 9.43354 21.5345 9.43354C22.5646 9.43354 23.2152 10.1745 23.2152 11.3673C23.2152 11.7468 23.161 12.1444 23.0525 12.6865H20.5766C20.5585 12.7769 20.5585 12.8131 20.5585 12.8492C20.5585 13.4637 20.9381 13.7709 21.661 13.7709C22.1128 13.7709 22.5104 13.6625 22.9441 13.4275L22.7634 14.7649ZM22.0766 11.6022C22.0947 11.4938 22.0947 11.4034 22.0947 11.3311C22.0947 10.8974 21.8778 10.6444 21.4983 10.6444C21.1007 10.6444 20.8296 10.9878 20.7031 11.6022H22.0766ZM40.1128 14.7649C39.6971 14.9094 39.2634 14.9817 38.8296 14.9817C37.4381 14.9817 36.7152 14.1685 36.7152 12.5962C36.7152 10.7709 37.6369 9.43354 38.9019 9.43354C39.932 9.43354 40.5826 10.1745 40.5826 11.3673C40.5826 11.7468 40.5284 12.1444 40.42 12.6865H37.9441C37.926 12.7769 37.926 12.8131 37.926 12.8492C37.926 13.4637 38.3055 13.7709 39.0284 13.7709C39.4802 13.7709 39.8778 13.6625 40.3116 13.4275L40.1128 14.7649ZM39.4079 11.6022C39.4079 11.4938 39.426 11.4034 39.426 11.3311C39.426 10.8974 39.2091 10.6444 38.8296 10.6444C38.432 10.6444 38.1609 10.9878 38.0344 11.6022H39.4079ZM4.29349 9.72269C4.05855 9.56004 3.71518 9.41546 3.26337 9.41546C2.75735 9.41546 2.35976 9.5239 2.35976 10.048C2.35976 10.9878 4.18506 10.6444 4.18506 12.6685C4.18506 14.5118 2.97422 14.9998 1.88988 14.9998C1.40193 14.9998 0.841688 14.8371 0.426025 14.6564L0.733254 13.301C0.986266 13.5359 1.47422 13.6805 1.90795 13.6805C2.30554 13.6805 2.90193 13.5721 2.90193 12.8853C2.90193 11.8191 1.07663 12.2167 1.07663 10.3371C1.07663 8.62028 2.14289 8.11426 3.19108 8.11426C3.7694 8.11426 4.32964 8.20462 4.63687 8.42149L4.29349 9.72269ZM11.6128 14.7649C11.3598 14.8914 11.0164 14.9637 10.5104 14.9637C9.42602 14.9637 8.75735 13.8793 8.75735 12.56C8.75735 10.8251 9.73325 9.45161 11.161 9.45161C11.4682 9.45161 11.9561 9.57811 12.3357 9.79498L12.0646 11.06C11.7935 10.8793 11.5224 10.7709 11.2333 10.7709C10.5646 10.7709 10.0947 11.3853 10.0947 12.4697C10.0947 13.1022 10.4381 13.6082 10.9802 13.6082C11.3055 13.6082 11.5405 13.5359 11.8116 13.3733L11.6128 14.7649ZM16.2754 13.4275C16.2031 13.8793 16.167 14.3492 16.1128 14.801H14.92L15.0104 13.9516H14.9923C14.6128 14.5299 14.2333 14.9275 13.5465 14.9275C12.8055 14.9275 12.3899 14.1323 12.3899 13.1022C12.3899 12.7408 12.4079 12.542 12.4802 11.9998L12.8236 9.54197H14.161L13.7995 12.0179C13.7634 12.289 13.7092 12.542 13.7092 12.8311C13.7092 13.1384 13.8537 13.4637 14.2152 13.4275C14.7573 13.4275 15.0826 12.7588 15.173 11.9817L15.5525 9.54197H16.8357L16.2754 13.4275ZM41.3417 14.7287H41.1429V13.8612H40.8537V13.6624H41.6308V13.8612H41.3417V14.7287ZM42.679 14.7287H42.4802V13.8432L42.2995 14.7287H42.1007L41.92 13.8432V14.7287H41.7212V13.6624H42.0284L42.1911 14.5118H42.2091L42.3718 13.6624H42.6609C42.679 13.6624 42.679 14.7287 42.679 14.7287Z" fill="#8a8a8a"/>
</svg>