<svg xmlns="http://www.w3.org/2000/svg" width="40" height="15" viewBox="0 0 40 15" fill="none">
<path d="M26.7658 8.51881L27.1578 8.6364C27.1317 8.74746 27.0925 8.83893 27.0337 8.91079C26.9749 8.98266 26.9095 9.04145 26.8246 9.07412C26.7397 9.11332 26.6351 9.13292 26.5045 9.13292C26.3477 9.13292 26.2236 9.11332 26.119 9.06759C26.021 9.02185 25.9361 8.94346 25.8642 8.82586C25.7924 8.7148 25.7532 8.56454 25.7532 8.38814C25.7532 8.15295 25.8185 7.97002 25.9426 7.83936C26.0668 7.7087 26.2497 7.6499 26.4783 7.6499C26.6613 7.6499 26.7985 7.6891 26.903 7.76097C27.0075 7.83283 27.0859 7.94389 27.1317 8.10069L26.7397 8.18562C26.7266 8.13989 26.7135 8.10722 26.6939 8.08762C26.6678 8.05496 26.6417 8.02882 26.6025 8.00922C26.5633 7.98962 26.5241 7.98309 26.4849 7.98309C26.3869 7.98309 26.3085 8.02229 26.2562 8.10722C26.217 8.16602 26.1974 8.26402 26.1974 8.38814C26.1974 8.54494 26.2236 8.656 26.2693 8.7148C26.315 8.7736 26.3869 8.80626 26.4718 8.80626C26.5567 8.80626 26.6221 8.78013 26.6613 8.7344C26.7135 8.6756 26.7462 8.61027 26.7658 8.51881Z" fill="#8a8a8a"/>
<path d="M27.3149 8.38833C27.3149 8.15314 27.3803 7.97021 27.5109 7.83955C27.6416 7.70889 27.8245 7.64355 28.0597 7.64355C28.3014 7.64355 28.4844 7.70889 28.615 7.83302C28.7457 7.96368 28.811 8.14007 28.811 8.37526C28.811 8.54512 28.7849 8.68232 28.7261 8.78685C28.6673 8.89138 28.5889 8.97631 28.4778 9.03511C28.3733 9.0939 28.2361 9.12657 28.0793 9.12657C27.916 9.12657 27.7853 9.10044 27.6743 9.04817C27.5697 8.99591 27.4848 8.91751 27.4129 8.79991C27.3411 8.68232 27.3149 8.55819 27.3149 8.38833ZM27.7592 8.38833C27.7592 8.53206 27.7853 8.63659 27.8376 8.70192C27.8899 8.76725 27.9617 8.79991 28.0597 8.79991C28.1577 8.79991 28.2296 8.76725 28.2818 8.70845C28.3341 8.64312 28.3602 8.53206 28.3602 8.37526C28.3602 8.23807 28.3341 8.14007 28.2753 8.08127C28.223 8.01594 28.1446 7.98981 28.0532 7.98981C27.9617 7.98981 27.8899 8.02248 27.8376 8.08781C27.7853 8.14007 27.7592 8.2446 27.7592 8.38833Z" fill="#8a8a8a"/>
<path d="M29.0397 7.66992H29.6211L29.8432 8.54536L30.0654 7.66992H30.6468V9.1072H30.281V8.00964L30 9.1072H29.6734L29.3925 8.00964V9.1072H29.0266V7.66992H29.0397Z" fill="#8a8a8a"/>
<path d="M30.9343 7.66992H31.6726C31.8359 7.66992 31.9535 7.70912 32.0319 7.78752C32.1103 7.86591 32.1495 7.97044 32.1495 8.11417C32.1495 8.2579 32.1038 8.3755 32.0188 8.45389C31.9339 8.53882 31.7967 8.57802 31.6203 8.57802H31.3786V9.11374H30.9343V7.66992ZM31.3786 8.28403H31.4896C31.5746 8.28403 31.6334 8.27097 31.6726 8.2383C31.7052 8.20564 31.7248 8.17297 31.7248 8.12724C31.7248 8.08151 31.7118 8.04231 31.6791 8.00964C31.6464 7.97698 31.5942 7.96391 31.5092 7.96391H31.3851V8.28403H31.3786Z" fill="#8a8a8a"/>
<path d="M32.3848 7.66992H32.829V8.75442H33.5215V9.1072H32.3848V7.66992Z" fill="#8a8a8a"/>
<path d="M33.7434 7.66992H34.1877V9.1072H33.7434V7.66992Z" fill="#8a8a8a"/>
<path d="M35.39 8.86518H34.8869L34.815 9.10037H34.3643L34.9065 7.66309H35.39L35.9322 9.10037H35.4684L35.39 8.86518ZM35.2985 8.55812L35.1417 8.04201L34.9849 8.55812H35.2985Z" fill="#8a8a8a"/>
<path d="M36.0691 7.66992H36.4807L37.0229 8.46696V7.66992H37.441V9.1072H37.0229L36.4872 8.3167V9.1072H36.0691V7.66992Z" fill="#8a8a8a"/>
<path d="M37.637 7.66992H38.9893V8.02271H38.5385V9.1072H38.0943V8.02271H37.6435V7.66992H37.637Z" fill="#8a8a8a"/>
<path d="M21.422 9.85845L22.7091 9.4534L22.2909 8.5257C21.9839 8.91115 21.6768 9.40767 21.422 9.85845ZM20.9843 5.61847L18.4625 0L0 1.0453L5.11542 15L14.9608 11.8968C14.3336 10.9952 14.105 9.92378 14.8301 9.40113C15.6402 8.81315 16.8619 9.49259 17.6394 10.453C18.3907 9.19861 20.5009 6.27831 20.9843 5.61847Z" fill="#8a8a8a"/>
<path d="M17.8873 4.06027C18.6582 4.06027 19.2854 3.47229 19.2854 2.74058C19.2854 2.00888 18.6582 1.4209 17.8873 1.4209C17.1164 1.4209 16.4893 2.00888 16.4893 2.74058C16.4893 3.46576 17.1164 4.06027 17.8873 4.06027ZM16.744 4.62865H19.0306V10.6064H16.744V4.62865Z" fill="#FEFEFE"/>
<path d="M15.614 6.37306C15.6336 6.37959 15.6467 6.37306 15.6467 6.35346V4.83778C15.6467 4.81818 15.6336 4.79858 15.614 4.78551C15.614 4.78551 15.3135 4.58952 14.3988 4.53725C14.3531 4.51112 13.5495 4.50459 13.3339 4.53725C10.0021 4.80511 9.87793 7.21583 9.87793 7.32036V7.90833C9.87793 7.9802 9.87793 10.4432 13.3339 10.6588C13.6737 10.6849 14.3335 10.6588 14.3988 10.6588C15.1959 10.6588 15.7447 10.417 15.7447 10.417C15.7643 10.4105 15.7773 10.3909 15.7773 10.3713V8.95363C15.7773 8.93403 15.7643 8.9275 15.7512 8.94056C15.7512 8.94056 15.5029 9.13656 14.4184 9.24762C14.1114 9.28029 13.9611 9.26722 13.8501 9.24762C12.3082 8.9863 12.2364 7.8626 12.2364 7.8626C12.2364 7.843 12.2298 7.81034 12.2298 7.79727V7.36609C12.2298 7.34649 12.2298 7.31382 12.2364 7.30076C12.2364 7.30076 12.3409 6.09213 13.8501 5.96147H14.4184C15.0783 6.0464 15.614 6.37306 15.614 6.37306Z" fill="#FEFEFE"/>
<path d="M3.52759 10.5867C3.52759 10.6063 3.54065 10.6194 3.56025 10.6194H5.78804C5.80764 10.6194 5.82071 10.6063 5.82071 10.5867V8.8489C5.82071 8.8293 5.83377 8.81623 5.85337 8.81623C5.85337 8.81623 9.41391 9.07102 9.41391 6.68644C9.41391 4.79838 7.17959 4.59585 6.44788 4.62852C6.43482 4.62852 3.56025 4.62852 3.56025 4.62852C3.54065 4.62852 3.52759 4.64158 3.52759 4.66118V10.5867ZM5.78151 7.49001V5.9286H6.33029C6.33029 5.9286 7.12079 5.96127 7.18613 6.50352C7.19919 6.54271 7.19919 6.81057 7.18613 6.82364C7.0816 7.45735 6.39562 7.49001 6.39562 7.49001H5.78151Z" fill="#FEFEFE"/>
<path d="M17.953 13.4909C18.1359 13.4909 18.2796 13.4909 18.5148 13.3864C19.3249 12.9618 22.0623 6.27839 24.9499 4.22046C24.9695 4.2074 24.9891 4.1878 25.0022 4.1682C25.0218 4.14207 25.0218 4.11593 25.0218 4.11593C25.0218 4.11593 25.0218 3.97874 24.5971 3.97874C22.0296 3.90687 19.3576 9.29668 17.953 11.4265C17.9334 11.4526 17.8419 11.4265 17.8419 11.4265C17.8419 11.4265 16.9011 10.3158 16.0845 9.8912C16.0649 9.88466 15.9734 9.852 15.8754 9.85853C15.8101 9.85853 15.4312 9.93693 15.2548 10.1199C15.0457 10.342 15.0523 10.4661 15.0523 10.734C15.0523 10.7536 15.0653 10.845 15.0915 10.8908C15.294 11.2435 16.2021 12.4979 16.9534 13.1904C17.0645 13.2753 17.2409 13.4909 17.953 13.4909Z" fill="#8a8a8a"/>
<path d="M25.7078 2.20166H27.8441C28.2687 2.20166 28.6085 2.26046 28.8633 2.37152C29.1246 2.48912 29.3402 2.65244 29.5035 2.8615C29.6734 3.0771 29.7975 3.32535 29.8693 3.60628C29.9477 3.8872 29.9869 4.18772 29.9869 4.50784C29.9869 5.00436 29.9281 5.38981 29.8171 5.6642C29.706 5.93859 29.5492 6.16725 29.3467 6.35671C29.1442 6.53964 28.9286 6.66377 28.6999 6.7291C28.3863 6.81403 28.0989 6.85323 27.8441 6.85323H25.7078V2.20166ZM27.145 3.25349V5.79487H27.4978C27.7984 5.79487 28.0139 5.7622 28.1381 5.69687C28.2622 5.63154 28.3667 5.51394 28.4386 5.35062C28.5105 5.18729 28.5497 4.9129 28.5497 4.54051C28.5497 4.04399 28.4713 3.71081 28.3079 3.52788C28.1446 3.34495 27.8833 3.25349 27.5044 3.25349H27.145Z" fill="#8a8a8a"/>
<path d="M30.3855 5.31792L31.7574 5.23299C31.7901 5.45511 31.8489 5.62498 31.9404 5.74257C32.0906 5.93203 32.2997 6.02349 32.5741 6.02349C32.7766 6.02349 32.9399 5.97776 33.051 5.87976C33.1621 5.78177 33.2209 5.67071 33.2209 5.54658C33.2209 5.42898 33.1686 5.31792 33.0641 5.21992C32.9595 5.12193 32.7113 5.037 32.3258 4.95207C31.6921 4.80834 31.2479 4.61888 30.9735 4.38369C30.6991 4.14849 30.5684 3.84797 30.5684 3.48212C30.5684 3.24039 30.6403 3.01827 30.7775 2.80268C30.9147 2.58708 31.1237 2.42376 31.4047 2.29963C31.6856 2.1755 32.0645 2.1167 32.548 2.1167C33.1425 2.1167 33.5998 2.22776 33.9068 2.44989C34.2204 2.67201 34.4034 3.0248 34.4622 3.50825L33.1033 3.58665C33.0641 3.37759 32.9922 3.22733 32.8746 3.12933C32.757 3.03133 32.6002 2.9856 32.3977 2.9856C32.2278 2.9856 32.1037 3.01827 32.0188 3.09013C31.9338 3.162 31.8946 3.24693 31.8946 3.35146C31.8946 3.42332 31.9273 3.49518 31.9992 3.55398C32.0645 3.61278 32.2278 3.67158 32.4826 3.72384C33.1098 3.86104 33.5606 3.99823 33.835 4.13543C34.1094 4.27262 34.3054 4.44902 34.4295 4.65154C34.5536 4.85407 34.6124 5.08926 34.6124 5.34405C34.6124 5.64457 34.5275 5.91897 34.3642 6.16722C34.2008 6.42201 33.9656 6.61147 33.6716 6.74214C33.3777 6.8728 32.9987 6.93813 32.548 6.93813C31.7574 6.93813 31.2087 6.78787 30.9016 6.48081C30.6011 6.17376 30.4312 5.7883 30.3855 5.31792Z" fill="#8a8a8a"/>
<path d="M34.9783 5.31792L36.3502 5.23299C36.3829 5.45511 36.4417 5.62498 36.5331 5.74257C36.6834 5.93203 36.8925 6.02349 37.1669 6.02349C37.3694 6.02349 37.5327 5.97776 37.6438 5.87976C37.7548 5.78177 37.8136 5.67071 37.8136 5.54658C37.8136 5.42898 37.7614 5.31792 37.6568 5.21992C37.5523 5.12193 37.3041 5.037 36.9186 4.95207C36.2849 4.80834 35.8406 4.61888 35.5663 4.38369C35.2984 4.14849 35.1612 3.84797 35.1612 3.48212C35.1612 3.24039 35.2331 3.01827 35.3703 2.80268C35.5075 2.58708 35.7165 2.42376 35.9974 2.29963C36.2784 2.1755 36.6573 2.1167 37.1407 2.1167C37.7352 2.1167 38.1926 2.22776 38.4996 2.44989C38.8132 2.67201 38.9961 3.0248 39.0549 3.50825L37.696 3.58665C37.6568 3.37759 37.585 3.22733 37.4674 3.12933C37.3498 3.03133 37.193 2.9856 36.9905 2.9856C36.8206 2.9856 36.6965 3.01827 36.6115 3.09013C36.5266 3.162 36.4874 3.24693 36.4874 3.35146C36.4874 3.42332 36.5201 3.49518 36.5919 3.55398C36.6573 3.61278 36.8206 3.67158 37.0754 3.72384C37.7026 3.86104 38.1534 3.99823 38.4277 4.13543C38.7021 4.27262 38.8981 4.44902 39.0223 4.65154C39.1464 4.85407 39.2052 5.08926 39.2052 5.34405C39.2052 5.64457 39.1203 5.91897 38.9569 6.16722C38.7936 6.42201 38.5584 6.61147 38.2644 6.74214C37.9704 6.8728 37.5915 6.93813 37.1407 6.93813C36.3502 6.93813 35.8014 6.78787 35.4944 6.48081C35.1873 6.17376 35.0175 5.7883 34.9783 5.31792Z" fill="#8a8a8a"/>
</svg>