<svg xmlns="http://www.w3.org/2000/svg" width="46" height="15" viewBox="0 0 46 15" fill="none">
<path d="M0 0V1.69688H2.43326V9.22559H4.44127V1.69688H6.87629V0H0Z" fill="#707070"/>
<path d="M11.4134 0H9.35777L6.00873 9.22559H7.57561C7.74324 9.22559 7.88264 9.17668 7.99733 9.08261C8.11379 8.98855 8.18966 8.88132 8.23024 8.76092L8.74019 7.15246H12.0292L12.5409 8.76092C12.5851 8.89825 12.6627 9.00924 12.7756 9.0939C12.8885 9.18044 13.0315 9.22371 13.2062 9.22371H14.7607L11.4134 0ZM9.20602 5.69827L10.0018 3.18682C10.06 3.02503 10.1236 2.83691 10.1906 2.6168C10.2594 2.39858 10.3247 2.15966 10.3882 1.90193C10.4553 2.1559 10.5241 2.39105 10.5929 2.60928C10.6617 2.82562 10.7235 3.01374 10.7747 3.17553L11.5705 5.70015H9.20602V5.69827Z" fill="#707070"/>
<path d="M22.631 9.22371H20.8135C20.4765 9.22371 20.2348 9.09014 20.0883 8.81924L18.652 6.14224C18.5867 6.0256 18.5144 5.94095 18.4279 5.89015C18.3432 5.83936 18.2232 5.81302 18.0697 5.81302H17.5598V9.22559H15.5518V4.5526C15.6294 4.39645 15.7723 4.14625 15.8588 4.11615C15.9929 4.06347 17.4133 4.15001 17.5262 4.22902C17.6356 4.31556 16.794 5.1433 16.6705 5.17905C16.5487 5.21479 16.1376 5.15647 16.0705 5.164C16.0017 5.17905 15.7494 5.69827 15.8041 5.69827C15.8588 5.69827 16.8381 5.48381 16.9334 5.41232C17.0339 5.34083 18.1332 4.46417 18.292 4.31179C18.4473 4.15565 18.5585 3.93366 18.4244 3.78881C18.412 3.77564 18.3944 3.76059 18.3803 3.7493C18.2373 3.64772 18.0044 3.63831 17.828 3.57435C17.6286 3.50475 17.5262 3.38247 17.7045 2.89899C17.8844 2.41363 18.5585 2.1559 18.5585 2.1559C18.7949 2.6168 19.2784 2.51145 19.2784 2.51145C19.2784 2.51145 19.469 2.75977 19.6807 2.83314C19.8907 2.90087 19.9154 2.74849 19.9701 2.52462C19.9895 2.44749 19.9472 2.31016 19.8748 2.14837C19.7389 1.83609 19.4972 1.42786 19.3913 1.20775C19.236 0.876656 19.3913 0.366841 19.3913 0.366841C19.1019 0.440209 19.0155 0.782595 19.0155 0.782595C19.0155 0.761902 18.5461 0.686652 18.5073 0.68477C18.0133 0.630214 17.4715 0.649026 17.0039 0.827743C16.6052 0.985767 15.7617 1.65173 15.6823 1.66113C15.6347 1.6649 15.5853 1.64796 15.5518 1.63103V0H18.3661C18.9908 0 19.5237 0.0696051 19.9666 0.205054C20.4077 0.344266 20.7676 0.534271 21.0464 0.778832C21.3235 1.02527 21.5281 1.3131 21.6552 1.64796C21.7805 1.97906 21.844 2.34214 21.844 2.73532C21.844 3.03632 21.8069 3.3185 21.7311 3.58564C21.657 3.85089 21.544 4.09546 21.3958 4.32309C21.2458 4.54883 21.0658 4.75201 20.8488 4.92696C20.6335 5.10568 20.3847 5.25054 20.1042 5.36341C20.2383 5.4349 20.3636 5.52519 20.48 5.63054C20.5965 5.73589 20.6988 5.8657 20.7871 6.0162L22.631 9.22371Z" fill="#707070"/>
<path d="M25.3361 7.51555V0H23.3281V9.22559H28.5422V7.51555H25.3361Z" fill="#707070"/>
<path d="M34.213 0H32.1574L28.8066 9.22559H30.3752C30.5411 9.22559 30.6823 9.17668 30.797 9.08261C30.9116 8.98855 30.9893 8.88132 31.0299 8.76092L31.5398 7.15246H34.8289L35.3406 8.76092C35.3847 8.89825 35.4605 9.00924 35.5752 9.0939C35.6882 9.18044 35.8311 9.22371 36.0058 9.22371H37.5603L34.213 0ZM32.0021 5.69827L32.7997 3.18682C32.8579 3.02503 32.9214 2.83691 32.9885 2.6168C33.0555 2.39858 33.1208 2.15966 33.1861 1.90193C33.2532 2.1559 33.3202 2.39105 33.3908 2.60928C33.4596 2.82562 33.5214 3.01374 33.5725 3.17553L34.3683 5.70015H32.0021V5.69827Z" fill="#707070"/>
<path d="M44.1319 0V4.88181C44.1319 5.03043 44.1354 5.18845 44.1443 5.354C44.1513 5.51955 44.1637 5.69263 44.1795 5.86946L40.0718 0.329217C40.0153 0.25773 39.9659 0.201291 39.9218 0.159903C39.8777 0.118516 39.8336 0.084656 39.7859 0.0620812C39.7383 0.0395063 39.6836 0.0244564 39.6254 0.0150502C39.5671 0.00564406 39.493 0 39.4065 0H38.3496V9.22559H40.1194V4.2817C40.1194 4.14437 40.1159 4.00328 40.1071 3.84713C40.1 3.69475 40.0894 3.53673 40.0771 3.37494L44.1548 8.87192C44.2537 9.00548 44.3578 9.09766 44.4636 9.14846C44.5695 9.20113 44.7001 9.22559 44.8554 9.22559H45.8999V0H44.1319Z" fill="#707070"/>
<path d="M2.67929 12.9401V14.1573H2.47461V11.136H3.20512C3.53685 11.136 3.78741 11.2132 3.9568 11.3693C4.12619 11.5254 4.21089 11.7456 4.21089 12.0334C4.21089 12.1651 4.18795 12.2873 4.14207 12.3983C4.0962 12.5093 4.02914 12.6053 3.94268 12.6862C3.85622 12.7671 3.75035 12.8291 3.62684 12.8743C3.50332 12.9194 3.36216 12.942 3.20688 12.942H2.67929V12.9401ZM2.67929 12.7652H3.20512C3.3304 12.7652 3.44333 12.7464 3.54214 12.7106C3.64095 12.673 3.72388 12.6222 3.7927 12.5564C3.86151 12.4905 3.91445 12.4134 3.95151 12.325C3.98856 12.2366 4.0062 12.1387 4.0062 12.0334C4.0062 11.802 3.93915 11.6233 3.80505 11.4972C3.67095 11.3712 3.47156 11.3091 3.20512 11.3091H2.67929V12.7652Z" fill="#707070"/>
<path d="M10.1246 14.1554H9.96582C9.94641 14.1554 9.93229 14.1498 9.91994 14.1404C9.90759 14.1291 9.89876 14.1159 9.89171 14.099L9.55645 13.2204H8.16425L7.83253 14.099C7.82723 14.114 7.81841 14.1291 7.80429 14.1404C7.79018 14.1517 7.7743 14.1573 7.75665 14.1573H7.59961L8.75889 11.136H8.96358L10.1246 14.1554ZM8.22778 13.0587H9.49822L8.91946 11.5311C8.91064 11.5066 8.90005 11.4803 8.89123 11.4483C8.88241 11.4182 8.87182 11.3862 8.863 11.3505C8.85418 11.3844 8.84359 11.4163 8.83477 11.4483C8.82594 11.4784 8.81536 11.5066 8.80653 11.533L8.22778 13.0587Z" fill="#707070"/>
<path d="M14.5094 12.91V14.1573H14.303V12.91L13.2549 11.136H13.4331C13.4525 11.136 13.4666 11.1417 13.479 11.1492C13.4896 11.1586 13.5019 11.1718 13.5125 11.1887L14.3242 12.5771C14.3436 12.609 14.3595 12.641 14.3718 12.673C14.3859 12.7031 14.3965 12.7351 14.4071 12.7652C14.4177 12.7332 14.43 12.7031 14.4424 12.673C14.4565 12.6429 14.4724 12.6109 14.49 12.5771L15.2999 11.1887C15.3088 11.1737 15.3176 11.1605 15.3299 11.1511C15.3423 11.1417 15.3564 11.136 15.3758 11.136H15.5558L14.5094 12.91Z" fill="#707070"/>
<path d="M20.8538 13.4048C20.8626 13.3822 20.8697 13.3597 20.8785 13.3371C20.8873 13.3145 20.8961 13.2938 20.9067 13.275L22.0201 11.1755C22.0307 11.1567 22.0413 11.1454 22.0519 11.1417C22.0625 11.1379 22.0766 11.136 22.096 11.136H22.2389V14.1573H22.059V11.5819C22.059 11.5443 22.0607 11.5066 22.0643 11.4652L20.9491 13.5779C20.9297 13.6155 20.9032 13.6324 20.8697 13.6324H20.8379C20.8044 13.6324 20.7779 13.6136 20.7568 13.5779L19.6116 11.4634C19.6151 11.5048 19.6186 11.5443 19.6186 11.5819V14.1573H19.4404V11.136H19.5798C19.5992 11.136 19.6133 11.1379 19.6257 11.1417C19.6381 11.1454 19.6486 11.1567 19.6592 11.1755L20.8026 13.2769C20.822 13.3164 20.8397 13.3597 20.8538 13.4048Z" fill="#707070"/>
<path d="M28.2072 11.3185H26.7144V12.5394H27.9567V12.7163H26.7144V13.9767H28.2072V14.1573H26.5098V11.136H28.2072V11.3185Z" fill="#707070"/>
<path d="M32.4865 11.1422C32.4971 11.1478 32.5077 11.1572 32.52 11.176L34.3551 13.7947C34.3516 13.7515 34.3498 13.7101 34.3498 13.6706V11.1365H34.5298V14.1578H34.431C34.401 14.1578 34.3763 14.1428 34.3569 14.1145L32.5147 11.4921C32.5182 11.5354 32.52 11.5749 32.52 11.6144V14.1578H32.3418V11.1365H32.4424C32.4618 11.1347 32.4759 11.1384 32.4865 11.1422Z" fill="#707070"/>
<path d="M40.5509 11.136V11.3223H39.5557V14.1573H39.3511V11.3223H38.3506V11.136H40.5509Z" fill="#707070"/>
<path d="M45.7971 11.6002C45.7848 11.6247 45.7671 11.636 45.746 11.636C45.7283 11.636 45.7054 11.6228 45.6789 11.5965C45.6507 11.5701 45.6136 11.5419 45.5678 11.508C45.5201 11.4761 45.4619 11.446 45.3913 11.4196C45.3207 11.3933 45.2343 11.3782 45.1319 11.3782C45.0296 11.3782 44.9378 11.3933 44.8602 11.4253C44.7826 11.4572 44.7155 11.4986 44.6626 11.5532C44.6096 11.6077 44.569 11.6698 44.5426 11.7413C44.5143 11.8128 44.502 11.888 44.502 11.9652C44.502 12.0668 44.5232 12.1533 44.5638 12.2191C44.6043 12.2869 44.659 12.3433 44.7261 12.3903C44.7931 12.4374 44.869 12.4769 44.9537 12.5089C45.0384 12.5408 45.1266 12.5728 45.2149 12.6048C45.3048 12.6368 45.3913 12.6706 45.476 12.7083C45.5607 12.7459 45.6366 12.7929 45.7036 12.8494C45.7707 12.9058 45.8236 12.9773 45.866 13.0601C45.9083 13.1428 45.9277 13.2463 45.9277 13.3705C45.9277 13.4965 45.9065 13.6169 45.866 13.7279C45.8254 13.8389 45.7654 13.9367 45.6895 14.0195C45.6119 14.1023 45.5166 14.1681 45.4054 14.2151C45.2925 14.2622 45.1655 14.2866 45.0208 14.2866C44.8337 14.2866 44.6731 14.2509 44.5373 14.1813C44.4032 14.1098 44.285 14.0138 44.1826 13.8916L44.2391 13.7975C44.255 13.7768 44.2744 13.7655 44.2955 13.7655C44.3079 13.7655 44.3238 13.7749 44.3414 13.7919C44.3608 13.8088 44.382 13.8295 44.4102 13.8539C44.4367 13.8784 44.4685 13.9066 44.5073 13.9348C44.5461 13.9631 44.5885 13.9913 44.6379 14.0157C44.6873 14.0402 44.7437 14.0609 44.809 14.0778C44.8725 14.0947 44.9466 14.1041 45.0278 14.1041C45.1407 14.1041 45.2413 14.0853 45.3295 14.0496C45.4178 14.0138 45.4919 13.9631 45.5536 13.901C45.6154 13.8389 45.6613 13.7636 45.693 13.6771C45.7248 13.5906 45.7407 13.4984 45.7407 13.4006C45.7407 13.2933 45.7195 13.2068 45.6789 13.1372C45.6383 13.0676 45.5836 13.0111 45.5166 12.9641C45.4495 12.9171 45.3737 12.8795 45.289 12.8475C45.2043 12.8155 45.116 12.7854 45.0278 12.7553C44.9378 12.7252 44.8514 12.6913 44.7667 12.6556C44.682 12.618 44.6061 12.5709 44.539 12.5145C44.472 12.4562 44.4191 12.3847 44.3767 12.2982C44.3361 12.2116 44.315 12.1044 44.315 11.9746C44.315 11.873 44.3326 11.7752 44.3697 11.6811C44.4049 11.587 44.4579 11.5043 44.5285 11.4328C44.5973 11.3613 44.6837 11.303 44.7861 11.2597C44.8884 11.2164 45.0049 11.1939 45.1355 11.1939C45.2819 11.1939 45.4142 11.2183 45.5307 11.2691C45.6472 11.3199 45.7548 11.3952 45.8501 11.4968L45.7971 11.6002Z" fill="#707070"/>
<g style="mix-blend-mode:luminosity">
<path d="M0 0V1.69688H2.43326V9.22559H4.44127V1.69688H6.87629V0H0Z" fill="#5e5e5e"/>
<path d="M11.4134 0H9.35777L6.00873 9.22559H7.57561C7.74324 9.22559 7.88264 9.17668 7.99733 9.08261C8.11379 8.98855 8.18966 8.88132 8.23024 8.76092L8.74019 7.15246H12.0292L12.5409 8.76092C12.5851 8.89825 12.6627 9.00924 12.7756 9.0939C12.8885 9.18044 13.0315 9.22371 13.2062 9.22371H14.7607L11.4134 0ZM9.20602 5.69827L10.0018 3.18682C10.06 3.02503 10.1236 2.83691 10.1906 2.6168C10.2594 2.39858 10.3247 2.15966 10.3882 1.90193C10.4553 2.1559 10.5241 2.39105 10.5929 2.60928C10.6617 2.82562 10.7235 3.01374 10.7747 3.17553L11.5705 5.70015H9.20602V5.69827Z" fill="#5e5e5e"/>
<path d="M22.631 9.22371H20.8135C20.4765 9.22371 20.2348 9.09014 20.0883 8.81924L18.652 6.14224C18.5867 6.0256 18.5144 5.94095 18.4279 5.89015C18.3432 5.83936 18.2232 5.81302 18.0697 5.81302H17.5598V9.22559H15.5518V4.5526C15.6294 4.39645 15.7723 4.14625 15.8588 4.11615C15.9929 4.06347 17.4133 4.15001 17.5262 4.22902C17.6356 4.31556 16.794 5.1433 16.6705 5.17905C16.5487 5.21479 16.1376 5.15647 16.0705 5.164C16.0017 5.17905 15.7494 5.69827 15.8041 5.69827C15.8588 5.69827 16.8381 5.48381 16.9334 5.41232C17.0339 5.34083 18.1332 4.46417 18.292 4.31179C18.4473 4.15565 18.5585 3.93366 18.4244 3.78881C18.412 3.77564 18.3944 3.76059 18.3803 3.7493C18.2373 3.64772 18.0044 3.63831 17.828 3.57435C17.6286 3.50475 17.5262 3.38247 17.7045 2.89899C17.8844 2.41363 18.5585 2.1559 18.5585 2.1559C18.7949 2.6168 19.2784 2.51145 19.2784 2.51145C19.2784 2.51145 19.469 2.75977 19.6807 2.83314C19.8907 2.90087 19.9154 2.74849 19.9701 2.52462C19.9895 2.44749 19.9472 2.31016 19.8748 2.14837C19.7389 1.83609 19.4972 1.42786 19.3913 1.20775C19.236 0.876656 19.3913 0.366841 19.3913 0.366841C19.1019 0.440209 19.0155 0.782595 19.0155 0.782595C19.0155 0.761902 18.5461 0.686652 18.5073 0.68477C18.0133 0.630214 17.4715 0.649026 17.0039 0.827743C16.6052 0.985767 15.7617 1.65173 15.6823 1.66113C15.6347 1.6649 15.5853 1.64796 15.5518 1.63103V0H18.3661C18.9908 0 19.5237 0.0696051 19.9666 0.205054C20.4077 0.344266 20.7676 0.534271 21.0464 0.778832C21.3235 1.02527 21.5281 1.3131 21.6552 1.64796C21.7805 1.97906 21.844 2.34214 21.844 2.73532C21.844 3.03632 21.8069 3.3185 21.7311 3.58564C21.657 3.85089 21.544 4.09546 21.3958 4.32309C21.2458 4.54883 21.0658 4.75201 20.8488 4.92696C20.6335 5.10568 20.3847 5.25054 20.1042 5.36341C20.2383 5.4349 20.3636 5.52519 20.48 5.63054C20.5965 5.73589 20.6988 5.8657 20.7871 6.0162L22.631 9.22371Z" fill="#5e5e5e"/>
<path d="M25.3361 7.51555V0H23.3281V9.22559H28.5422V7.51555H25.3361Z" fill="#5e5e5e"/>
<path d="M34.213 0H32.1574L28.8066 9.22559H30.3752C30.5411 9.22559 30.6823 9.17668 30.797 9.08261C30.9116 8.98855 30.9893 8.88132 31.0299 8.76092L31.5398 7.15246H34.8289L35.3406 8.76092C35.3847 8.89825 35.4605 9.00924 35.5752 9.0939C35.6882 9.18044 35.8311 9.22371 36.0058 9.22371H37.5603L34.213 0ZM32.0021 5.69827L32.7997 3.18682C32.8579 3.02503 32.9214 2.83691 32.9885 2.6168C33.0555 2.39858 33.1208 2.15966 33.1861 1.90193C33.2532 2.1559 33.3202 2.39105 33.3908 2.60928C33.4596 2.82562 33.5214 3.01374 33.5725 3.17553L34.3683 5.70015H32.0021V5.69827Z" fill="#5e5e5e"/>
<path d="M44.1319 0V4.88181C44.1319 5.03043 44.1354 5.18845 44.1443 5.354C44.1513 5.51955 44.1637 5.69263 44.1795 5.86946L40.0718 0.329217C40.0153 0.25773 39.9659 0.201291 39.9218 0.159903C39.8777 0.118516 39.8336 0.084656 39.7859 0.0620812C39.7383 0.0395063 39.6836 0.0244564 39.6254 0.0150502C39.5671 0.00564406 39.493 0 39.4065 0H38.3496V9.22559H40.1194V4.2817C40.1194 4.14437 40.1159 4.00328 40.1071 3.84713C40.1 3.69475 40.0894 3.53673 40.0771 3.37494L44.1548 8.87192C44.2537 9.00548 44.3578 9.09766 44.4636 9.14846C44.5695 9.20113 44.7001 9.22559 44.8554 9.22559H45.8999V0H44.1319Z" fill="#5e5e5e"/>
<path d="M2.67929 12.9401V14.1573H2.47461V11.136H3.20512C3.53685 11.136 3.78741 11.2132 3.9568 11.3693C4.12619 11.5254 4.21089 11.7456 4.21089 12.0334C4.21089 12.1651 4.18795 12.2873 4.14207 12.3983C4.0962 12.5093 4.02914 12.6053 3.94268 12.6862C3.85622 12.7671 3.75035 12.8291 3.62684 12.8743C3.50332 12.9194 3.36216 12.942 3.20688 12.942H2.67929V12.9401ZM2.67929 12.7652H3.20512C3.3304 12.7652 3.44333 12.7464 3.54214 12.7106C3.64095 12.673 3.72388 12.6222 3.7927 12.5564C3.86151 12.4905 3.91445 12.4134 3.95151 12.325C3.98856 12.2366 4.0062 12.1387 4.0062 12.0334C4.0062 11.802 3.93915 11.6233 3.80505 11.4972C3.67095 11.3712 3.47156 11.3091 3.20512 11.3091H2.67929V12.7652Z" fill="#5e5e5e"/>
<path d="M10.1246 14.1554H9.96582C9.94641 14.1554 9.93229 14.1498 9.91994 14.1404C9.90759 14.1291 9.89876 14.1159 9.89171 14.099L9.55645 13.2204H8.16425L7.83253 14.099C7.82723 14.114 7.81841 14.1291 7.80429 14.1404C7.79018 14.1517 7.7743 14.1573 7.75665 14.1573H7.59961L8.75889 11.136H8.96358L10.1246 14.1554ZM8.22778 13.0587H9.49822L8.91946 11.5311C8.91064 11.5066 8.90005 11.4803 8.89123 11.4483C8.88241 11.4182 8.87182 11.3862 8.863 11.3505C8.85418 11.3844 8.84359 11.4163 8.83477 11.4483C8.82594 11.4784 8.81536 11.5066 8.80653 11.533L8.22778 13.0587Z" fill="#5e5e5e"/>
<path d="M14.5094 12.91V14.1573H14.303V12.91L13.2549 11.136H13.4331C13.4525 11.136 13.4666 11.1417 13.479 11.1492C13.4896 11.1586 13.5019 11.1718 13.5125 11.1887L14.3242 12.5771C14.3436 12.609 14.3595 12.641 14.3718 12.673C14.3859 12.7031 14.3965 12.7351 14.4071 12.7652C14.4177 12.7332 14.43 12.7031 14.4424 12.673C14.4565 12.6429 14.4724 12.6109 14.49 12.5771L15.2999 11.1887C15.3088 11.1737 15.3176 11.1605 15.3299 11.1511C15.3423 11.1417 15.3564 11.136 15.3758 11.136H15.5558L14.5094 12.91Z" fill="#5e5e5e"/>
<path d="M20.8538 13.4048C20.8626 13.3822 20.8697 13.3597 20.8785 13.3371C20.8873 13.3145 20.8961 13.2938 20.9067 13.275L22.0201 11.1755C22.0307 11.1567 22.0413 11.1454 22.0519 11.1417C22.0625 11.1379 22.0766 11.136 22.096 11.136H22.2389V14.1573H22.059V11.5819C22.059 11.5443 22.0607 11.5066 22.0643 11.4652L20.9491 13.5779C20.9297 13.6155 20.9032 13.6324 20.8697 13.6324H20.8379C20.8044 13.6324 20.7779 13.6136 20.7568 13.5779L19.6116 11.4634C19.6151 11.5048 19.6186 11.5443 19.6186 11.5819V14.1573H19.4404V11.136H19.5798C19.5992 11.136 19.6133 11.1379 19.6257 11.1417C19.6381 11.1454 19.6486 11.1567 19.6592 11.1755L20.8026 13.2769C20.822 13.3164 20.8397 13.3597 20.8538 13.4048Z" fill="#5e5e5e"/>
<path d="M28.2072 11.3185H26.7144V12.5394H27.9567V12.7163H26.7144V13.9767H28.2072V14.1573H26.5098V11.136H28.2072V11.3185Z" fill="#5e5e5e"/>
<path d="M32.4865 11.1422C32.4971 11.1478 32.5077 11.1572 32.52 11.176L34.3551 13.7947C34.3516 13.7515 34.3498 13.7101 34.3498 13.6706V11.1365H34.5298V14.1578H34.431C34.401 14.1578 34.3763 14.1428 34.3569 14.1145L32.5147 11.4921C32.5182 11.5354 32.52 11.5749 32.52 11.6144V14.1578H32.3418V11.1365H32.4424C32.4618 11.1347 32.4759 11.1384 32.4865 11.1422Z" fill="#5e5e5e"/>
<path d="M40.5509 11.136V11.3223H39.5557V14.1573H39.3511V11.3223H38.3506V11.136H40.5509Z" fill="#5e5e5e"/>
<path d="M45.7971 11.6002C45.7848 11.6247 45.7671 11.636 45.746 11.636C45.7283 11.636 45.7054 11.6228 45.6789 11.5965C45.6507 11.5701 45.6136 11.5419 45.5678 11.508C45.5201 11.4761 45.4619 11.446 45.3913 11.4196C45.3207 11.3933 45.2343 11.3782 45.1319 11.3782C45.0296 11.3782 44.9378 11.3933 44.8602 11.4253C44.7826 11.4572 44.7155 11.4986 44.6626 11.5532C44.6096 11.6077 44.569 11.6698 44.5426 11.7413C44.5143 11.8128 44.502 11.888 44.502 11.9652C44.502 12.0668 44.5232 12.1533 44.5638 12.2191C44.6043 12.2869 44.659 12.3433 44.7261 12.3903C44.7931 12.4374 44.869 12.4769 44.9537 12.5089C45.0384 12.5408 45.1266 12.5728 45.2149 12.6048C45.3048 12.6368 45.3913 12.6706 45.476 12.7083C45.5607 12.7459 45.6366 12.7929 45.7036 12.8494C45.7707 12.9058 45.8236 12.9773 45.866 13.0601C45.9083 13.1428 45.9277 13.2463 45.9277 13.3705C45.9277 13.4965 45.9065 13.6169 45.866 13.7279C45.8254 13.8389 45.7654 13.9367 45.6895 14.0195C45.6119 14.1023 45.5166 14.1681 45.4054 14.2151C45.2925 14.2622 45.1655 14.2866 45.0208 14.2866C44.8337 14.2866 44.6731 14.2509 44.5373 14.1813C44.4032 14.1098 44.285 14.0138 44.1826 13.8916L44.2391 13.7975C44.255 13.7768 44.2744 13.7655 44.2955 13.7655C44.3079 13.7655 44.3238 13.7749 44.3414 13.7919C44.3608 13.8088 44.382 13.8295 44.4102 13.8539C44.4367 13.8784 44.4685 13.9066 44.5073 13.9348C44.5461 13.9631 44.5885 13.9913 44.6379 14.0157C44.6873 14.0402 44.7437 14.0609 44.809 14.0778C44.8725 14.0947 44.9466 14.1041 45.0278 14.1041C45.1407 14.1041 45.2413 14.0853 45.3295 14.0496C45.4178 14.0138 45.4919 13.9631 45.5536 13.901C45.6154 13.8389 45.6613 13.7636 45.693 13.6771C45.7248 13.5906 45.7407 13.4984 45.7407 13.4006C45.7407 13.2933 45.7195 13.2068 45.6789 13.1372C45.6383 13.0676 45.5836 13.0111 45.5166 12.9641C45.4495 12.9171 45.3737 12.8795 45.289 12.8475C45.2043 12.8155 45.116 12.7854 45.0278 12.7553C44.9378 12.7252 44.8514 12.6913 44.7667 12.6556C44.682 12.618 44.6061 12.5709 44.539 12.5145C44.472 12.4562 44.4191 12.3847 44.3767 12.2982C44.3361 12.2116 44.315 12.1044 44.315 11.9746C44.315 11.873 44.3326 11.7752 44.3697 11.6811C44.4049 11.587 44.4579 11.5043 44.5285 11.4328C44.5973 11.3613 44.6837 11.303 44.7861 11.2597C44.8884 11.2164 45.0049 11.1939 45.1355 11.1939C45.2819 11.1939 45.4142 11.2183 45.5307 11.2691C45.6472 11.3199 45.7548 11.3952 45.8501 11.4968L45.7971 11.6002Z" fill="#5e5e5e"/>
</g>
</svg>