<svg xmlns="http://www.w3.org/2000/svg" width="36" height="15" viewBox="0 0 36 15" fill="none">
<path d="M14.7471 8.00907L13.0077 12.7064L12.8214 11.7507C12.3865 10.58 11.4451 9.35185 10.3508 8.8501L11.9469 14.8855H13.8344L16.6395 7.99951H14.7471V8.00907Z" fill="#8a8a8a"/>
<path d="M16.2427 14.8998L17.3561 7.99951H19.1385L18.0251 14.8998H16.2427Z" fill="#8a8a8a"/>
<path d="M24.4858 8.17138C24.1322 8.0328 23.5778 7.87988 22.8897 7.87988C21.1264 7.87988 19.8888 8.81649 19.8792 10.1545C19.8697 11.1484 20.7633 11.698 21.437 12.0277C22.1347 12.367 22.3641 12.582 22.3641 12.8831C22.3593 13.3466 21.8098 13.5569 21.2985 13.5569C20.5864 13.5569 20.2089 13.4517 19.6212 13.1985L19.3918 13.0885L19.1433 14.632C19.559 14.8232 20.3284 14.9904 21.1312 15C22.9996 15 24.2182 14.0729 24.2325 12.6441C24.2421 11.8557 23.7642 11.2631 22.7368 10.7709C22.1156 10.4508 21.7333 10.2405 21.7381 9.91556C21.7381 9.62885 22.0583 9.32302 22.7607 9.32302C23.3437 9.31346 23.7642 9.44726 24.0939 9.59062L24.2516 9.67185L24.4858 8.17138Z" fill="#8a8a8a"/>
<path d="M29.0543 8.00879H27.678C27.2527 8.00879 26.9326 8.12825 26.7414 8.58222L24.0989 14.9043H25.9673C25.9673 14.9043 26.2731 14.0537 26.3448 13.8673C26.5503 13.8673 28.3662 13.8721 28.6242 13.8721C28.6815 14.111 28.8392 14.9043 28.8392 14.9043H30.4974L29.0543 8.00879ZM26.8561 12.4529C27.0043 12.0563 27.5634 10.5223 27.5634 10.5223C27.5538 10.5414 27.7115 10.1257 27.8023 9.86288L27.9218 10.4554C27.9218 10.4554 28.2658 12.104 28.3375 12.4481C28.0603 12.4529 27.205 12.4529 26.8561 12.4529Z" fill="#8a8a8a"/>
<path d="M11.3879 8.00391H8.51594L8.49683 8.12337C10.7284 8.6968 12.205 10.0969 12.8167 11.7551L12.1955 8.58212C12.0903 8.14726 11.7749 8.01824 11.3879 8.00391Z" fill="#5e5e5e"/>
<path d="M3.12559 6.33632H1.99307L0.678955 0.429984L1.93572 0.219727L2.8341 4.84062L5.11827 0.281848H6.32247L3.12559 6.33632Z" fill="#8a8a8a"/>
<path d="M9.03657 4.40607H6.32711C6.25065 5.22799 6.63294 5.58639 7.28283 5.58639C7.82281 5.58639 8.30067 5.38568 8.81198 5.06074L8.8072 5.88266C8.30545 6.19805 7.72246 6.39875 7.03912 6.39875C5.85881 6.39875 5.0799 5.72496 5.31405 4.20537C5.52431 2.83392 6.47525 2.00244 7.57432 2.00244C8.84065 2.00244 9.26116 2.95338 9.07958 4.15281C9.07002 4.23882 9.04135 4.34395 9.03657 4.40607ZM7.44052 2.72879C7.02001 2.72879 6.62816 3.05851 6.44657 3.75141H8.12386C8.15253 3.09674 7.94705 2.72879 7.44052 2.72879Z" fill="#8a8a8a"/>
<path d="M10.8001 3.88988L10.4274 6.30785H9.38086L10.0307 2.08835H10.9243V2.93416C11.278 2.44675 11.7606 2.03579 12.4248 1.99756L12.4296 3.03929C11.7606 3.08708 11.1681 3.43591 10.8001 3.88988Z" fill="#8a8a8a"/>
<path d="M12.4104 6.30769L13.0603 2.0882H14.1068L13.4617 6.30769H12.4104ZM13.7006 1.38096C13.3518 1.38096 13.1081 1.13725 13.1654 0.788418C13.2228 0.430023 13.5381 0.176758 13.887 0.176758C14.2263 0.176758 14.47 0.430023 14.4126 0.788418C14.3601 1.13725 14.0447 1.38096 13.7006 1.38096Z" fill="#8a8a8a"/>
<path d="M17.0121 0.936807C16.6537 0.936807 16.4386 1.0945 16.3813 1.47201L16.2857 2.09323H17.0885V2.94859H16.1519L15.6358 6.30794H14.5941L15.1102 2.94381H14.4985L14.6323 2.08845H15.244L15.3539 1.3621C15.4973 0.425497 16.1471 0.0766602 17.0121 0.0766602C17.1937 0.0766602 17.3322 0.0957744 17.4374 0.11011L17.4469 0.965478C17.3418 0.955921 17.1889 0.936807 17.0121 0.936807Z" fill="#8a8a8a"/>
<path d="M17.0217 6.30769L17.6716 2.0882H18.7181L18.073 6.30769H17.0217ZM18.3167 1.38096C17.9679 1.38096 17.7242 1.13725 17.7767 0.788418C17.8341 0.430023 18.1495 0.176758 18.4983 0.176758C18.8376 0.176758 19.0813 0.430023 19.024 0.788418C18.9714 1.13725 18.656 1.38096 18.3167 1.38096Z" fill="#8a8a8a"/>
<path d="M22.7895 4.40607H20.08C20.0084 5.22799 20.3859 5.58639 21.0358 5.58639C21.5757 5.58639 22.0536 5.38568 22.5649 5.06074L22.5601 5.88266C22.0584 6.19805 21.4754 6.39875 20.792 6.39875C19.6117 6.39875 18.8328 5.72496 19.067 4.20537C19.2772 2.83392 20.2282 2.00244 21.3273 2.00244C22.5936 2.00244 23.0141 2.95338 22.8325 4.15281C22.823 4.23882 22.7943 4.34395 22.7895 4.40607ZM21.1935 2.72879C20.7729 2.72879 20.3811 3.05851 20.1995 3.75141H21.8768C21.9055 3.09674 21.7 2.72879 21.1935 2.72879Z" fill="#8a8a8a"/>
<path d="M25.8907 6.30774L25.8955 5.71997C25.5419 6.07837 25.0832 6.39375 24.5002 6.39375C23.6161 6.39375 23.0092 5.73909 23.2291 4.31507C23.4728 2.74291 24.4428 2.04524 25.4224 2.04524C25.8238 2.04524 26.1392 2.11692 26.3782 2.20293L26.6935 0.167251L27.7687 0L26.7987 6.30774H25.8907ZM26.2444 3.06786C26.0006 2.94361 25.8095 2.88627 25.4511 2.88627C24.9016 2.88627 24.4285 3.33068 24.2899 4.25773C24.1657 5.07964 24.4524 5.46193 24.9159 5.46193C25.2982 5.46193 25.6327 5.23256 25.9672 4.88372L26.2444 3.06786Z" fill="#8a8a8a"/>
<path d="M30.0051 6.35051C29.5082 6.35051 29.102 6.26928 28.7292 6.14025L29.4174 1.65794L30.2297 1.53369L29.9335 3.4738C30.1724 3.26354 30.5021 3.0485 30.9035 3.0485C31.5773 3.0485 32.0313 3.55026 31.864 4.62544C31.6824 5.80097 30.9561 6.35051 30.0051 6.35051ZM30.5929 3.74618C30.3301 3.74618 30.0625 3.92299 29.8283 4.16192L29.6037 5.60983C29.7614 5.66717 29.8666 5.69585 30.0911 5.69585C30.5929 5.69585 30.9465 5.39001 31.0564 4.66367C31.152 4.05201 30.9465 3.74618 30.5929 3.74618Z" fill="#8a8a8a"/>
<path d="M33.7372 6.48467C33.3311 7.27314 32.9297 7.51684 32.3132 7.51684C32.1746 7.51684 32.0982 7.50251 32.0265 7.4834L32.0217 6.82873C32.1221 6.8574 32.232 6.87651 32.3849 6.87651C32.6143 6.87651 32.8198 6.77138 32.9536 6.53723L33.0587 6.32698L32.3849 3.17788L33.2307 3.07275L33.6226 5.34736L34.6786 3.11576H35.4671L33.7372 6.48467Z" fill="#8a8a8a"/>
</svg>